<?xml version="1.0" encoding="iso-8859-1"?>
<!-- Generator: Adobe Illustrator 16.0.0, SVG Export Plug-In . SVG Version: 6.00 Build 0)  -->
<!DOCTYPE svg PUBLIC "-//W3C//DTD SVG 1.1//EN" "http://www.w3.org/Graphics/SVG/1.1/DTD/svg11.dtd">
<svg version="1.1" id="Capa_1" xmlns="http://www.w3.org/2000/svg" xmlns:xlink="http://www.w3.org/1999/xlink" x="0px" y="0px"
	 width="564.446px" height="564.447px" viewBox="0 0 564.446 564.447" style="enable-background:new 0 0 564.446 564.447;"
	 xml:space="preserve">
<g>
	<g>
		<path d="M282.224,0C126.354,0,0,126.357,0,282.223c0,155.872,126.354,282.224,282.223,282.224
			c155.867,0,282.223-126.352,282.223-282.224C564.446,126.357,438.091,0,282.224,0z M282.224,531.591
			c-137.5,0-249.365-111.863-249.365-249.368c0-137.5,111.871-249.365,249.365-249.365c137.494,0,249.368,111.871,249.368,249.365
			C531.597,419.728,419.729,531.591,282.224,531.591z"/>
		<path d="M282.224,166.011c50.528,0,93.512,32.259,109.507,77.299h130.504C503.558,127.674,403.045,39.077,282.219,39.077
			c-120.824,0-221.326,88.605-240.006,204.233h130.507C188.722,198.27,231.698,166.011,282.224,166.011z M370.889,135.354
			l7.788,3.982c-0.865,1.787-1.098,3.495-0.694,5.121c0.404,1.629,1.264,2.874,2.61,3.749c1.532,0.992,3.221,1.209,5.085,0.658
			c1.869-0.551,3.619-2.084,5.234-4.585c1.528-2.346,2.144-4.442,1.849-6.299c-0.29-1.856-1.273-3.332-2.956-4.422
			c-2.108-1.365-4.594-1.66-7.462-0.881l-5.391-4.72l16.658-17.455l19.366,12.572l-4.448,6.851l-13.81-8.961l-5.365,5.743
			c2.159,0.244,4.091,0.917,5.8,2.02c3.241,2.105,5.229,5.08,5.955,8.904c0.725,3.832-0.135,7.63-2.579,11.399
			c-2.04,3.144-4.774,5.359-8.202,6.644c-4.671,1.761-9.207,1.204-13.623-1.659c-3.526-2.292-5.784-5.106-6.784-8.443
			C368.921,142.235,369.247,138.831,370.889,135.354z M321.935,83.611l8.938,2.19l-8.922,36.429l22.209,5.434l-1.822,7.457
			l-31.142-7.625L321.935,83.611z M270.014,80.872l9.194,30.807l7.234-31.302l13.786-0.412l1.367,45.521l-8.533,0.254l-1.077-35.833
			l-7.961,36.107l-8.849,0.267l-10.087-35.563l1.077,35.833l-8.536,0.256l-1.37-45.521L270.014,80.872z M237.663,84.955l2.312,7.348
			l-12.857,4.052l11.351,36.094l-8.774,2.763l-11.353-36.1l-12.891,4.057l-2.312-7.35L237.663,84.955z M163.388,117.909
			l9.497,15.208l15.281-9.546l-9.497-15.2l7.801-4.875l24.13,38.629l-7.801,4.873l-10.55-16.894l-15.281,9.546l10.551,16.894
			l-7.801,4.873l-24.13-38.634L163.388,117.909z"/>
		<path d="M282.224,398.431c-50.525,0-93.506-32.266-109.504-77.305H42.212c18.68,115.643,119.193,204.24,240.017,204.24
			c120.826,0,221.333-88.598,240.016-204.24h-130.51C375.735,366.166,332.757,398.431,282.224,398.431z M190.027,456.648
			l-7.705-5.027l10.887-16.679l-15.097-9.849l-10.882,16.684l-7.697-5.033l24.889-38.143l7.7,5.028l-9.794,15.012l15.092,9.844
			l9.797-15.017l7.705,5.027L190.027,456.648z M251.344,438.768l-12.86-4.064l-11.405,36.081l-8.764-2.771l11.405-36.081
			l-12.891-4.075l2.322-7.348l34.515,10.91L251.344,438.768z M300.643,478.904l-8.544-0.155l0.652-35.843l-9.693,35.677l-8.855-0.16
			l-8.357-36.014l-0.652,35.853l-8.542-0.149l0.826-45.542l13.761,0.249l7.7,31.214l8.733-30.914l13.789,0.249L300.643,478.904z
			 M321.028,475.217l-12.215-43.486l8.854-2.496l10.139,36.107l22.018-6.183l2.071,7.389L321.028,475.217z M401.118,419.413
			c2.206,3.029,3.304,6.379,3.268,10.03c-0.031,4.996-2.18,9.041-6.431,12.137c-3.402,2.465-6.841,3.573-10.31,3.304
			c-3.47-0.264-6.535-1.791-9.197-4.567l6.504-5.84c1.357,1.439,2.874,2.268,4.536,2.485c1.657,0.207,3.138-0.15,4.422-1.099
			c1.481-1.066,2.289-2.573,2.444-4.515c0.146-1.937-0.652-4.111-2.408-6.535c-1.641-2.258-3.391-3.583-5.214-3.977
			c-1.838-0.394-3.567,0-5.193,1.181c-2.024,1.471-3.195,3.697-3.495,6.659l-6.328,3.335l-10.325-21.801l18.667-13.582l4.806,6.612
			l-13.323,9.684l3.448,7.058c1.005-1.932,2.32-3.495,3.967-4.687c3.138-2.283,6.617-3.075,10.449-2.376
			C395.236,413.613,398.478,415.783,401.118,419.413z"/>
		<polygon points="458.28,304.738 467.616,314.074 476.937,304.738 490.125,304.738 490.125,291.549 499.462,282.218 
			490.125,272.892 490.125,259.699 476.937,259.699 467.616,250.368 458.28,259.699 445.091,259.699 445.091,272.892 
			435.755,282.218 445.091,291.549 445.091,304.738 		"/>
		<polygon points="83.798,304.738 93.132,314.074 102.452,304.738 115.644,304.738 115.644,291.549 124.977,282.218 
			115.644,272.892 115.644,259.699 102.452,259.699 93.132,250.368 83.798,259.699 70.607,259.699 70.607,272.892 61.273,282.218 
			70.607,291.549 70.607,304.738 		"/>
		<polygon points="268.46,214.561 268.46,197.253 276.085,197.253 276.085,188.66 252.18,188.66 252.18,197.253 259.8,197.253 
			259.8,214.561 		"/>
		<polygon points="313.334,188.66 313.334,214.561 334.176,214.561 334.176,206.001 322.007,206.001 322.007,188.66 		"/>
		<polygon points="309.03,214.561 309.03,188.66 300,188.66 294.449,197.778 288.901,188.66 279.875,188.66 279.875,214.561 
			288.345,214.561 288.345,201.729 294.304,210.933 294.449,210.933 300.414,201.729 300.414,214.561 		"/>
		<path d="M223.092,364.804l55.58,15.42l55.639-15.42l12.392-138.88H210.711L223.092,364.804z M278.705,254.318h42.66l-1.522,17.021
			h-41.146h-24.034l1.548,17.445h22.486h39.592l-4.671,52.3l-34.918,9.672l-0.023,0.011l-34.896-9.683l-2.434-27.361h17.106
			l1.263,14.188l18.97,5.127h0.01l18.993-5.127l1.988-22.095h-20.974h-38.062l-4.599-51.502h42.66V254.318z"/>
		<polygon points="223.193,188.66 223.193,214.561 231.846,214.561 231.846,205.893 239.763,205.893 239.763,214.561 
			248.416,214.561 248.416,188.66 239.763,188.66 239.763,197.216 231.846,197.216 231.846,188.66 		"/>
	</g>
</g>
<g>
</g>
<g>
</g>
<g>
</g>
<g>
</g>
<g>
</g>
<g>
</g>
<g>
</g>
<g>
</g>
<g>
</g>
<g>
</g>
<g>
</g>
<g>
</g>
<g>
</g>
<g>
</g>
<g>
</g>
</svg>
